# xmcd
#
# Track frame offsets:
#	182
#	12537
#	27017
#	37407
#	51877
#	67805
#	82752
#	101147
#	115217
#	129275
#	144060
#	159285
#	179505
#	195457
#	211402
#
# Disc length: 2956 seconds
#
# Revision: 8
# Processed by: cddbd v1.5.1PL0 Copyright (c) Steve Scherf et al.
# Submitted via: EasyCDDAExtractor 8.0.0.2
#
DISCID=c20b8a0f
DTITLE=10000 Maniacs - The Wishing Chair
DYEAR=1985
DGENRE=Alternative
TTITLE0=Can't Ignore The Train
TTITLE1=Scorpio Rising
TTITLE2=Just As The Tide Was A Flowing
TTITLE3=Lilydale
TTITLE4=Back O' The Moon
TTITLE5=Maddox Table
TTITLE6=The Colonial Wing
TTITLE7=Grey Victory
TTITLE8=Among The Americans
TTITLE9=Everyone A Puzzle Lover
TTITLE10=Cotton Alley
TTITLE11=Daktari
TTITLE12=My Mother The War
TTITLE13=Tension Makes A Tangle
TTITLE14=Arbor Day
EXTD=
EXTT0=
EXTT1=
EXTT2=
EXTT3=
EXTT4=
EXTT5=
EXTT6=
EXTT7=
EXTT8=
EXTT9=
EXTT10=
EXTT11=
EXTT12=
EXTT13=
EXTT14=
PLAYORDER=
